<svg id="Capa_1" enable-background="new 0 0 512 512" height="512" viewBox="0 0 512 512" width="512" xmlns="http://www.w3.org/2000/svg"><g><path d="m256 0c-141.49 0-256 114.5-256 256 0 141.49 114.5 256 256 256 141.49 0 256-114.5 256-256 0-141.49-114.5-256-256-256zm-12.284 317.397-58.121 58.132c-6.565 6.553-15.283 10.166-24.557 10.166-19.196 0-34.734-15.526-34.734-34.734 0-9.274 3.612-17.992 10.166-24.557l58.132-58.121c6.785-6.784 6.785-17.783 0-24.568l-58.132-58.121c-6.553-6.565-10.166-15.283-10.166-24.557 0-19.196 15.526-34.734 34.734-34.734 9.274 0 17.992 3.613 24.557 10.166l58.121 58.132c6.785 6.773 17.784 6.773 24.568 0l58.121-58.132c6.565-6.553 15.283-10.166 24.557-10.166 19.196 0 34.734 15.526 34.734 34.734 0 9.274-3.612 17.992-10.166 24.557l-58.132 58.121c-6.785 6.784-6.785 17.783 0 24.568l58.132 58.121c6.553 6.565 10.166 15.283 10.166 24.557 0 19.196-15.526 34.734-34.734 34.734-9.274 0-17.992-3.613-24.557-10.166l-58.121-58.132c-6.784-6.784-17.784-6.773-24.568 0z"/></g></svg>